<svg width="24" height="25" viewBox="0 0 24 25" fill="none" xmlns="http://www.w3.org/2000/svg">
<g id="icon/VerticalAlignBottom">
<path id="Vector" d="M21.3188 19.679H2.68132C2.56078 19.679 2.46436 19.7754 2.46436 19.8933V21.5004C2.46436 21.6183 2.56078 21.7147 2.68132 21.7147H21.3188C21.4394 21.7147 21.5358 21.6183 21.5358 21.5004V19.8933C21.5358 19.7754 21.4394 19.679 21.3188 19.679ZM11.8313 16.7058C11.8514 16.7314 11.877 16.7521 11.9062 16.7663C11.9355 16.7806 11.9675 16.788 12.0001 16.788C12.0326 16.788 12.0647 16.7806 12.0939 16.7663C12.1232 16.7521 12.1488 16.7314 12.1688 16.7058L15.1688 12.9102C15.2786 12.771 15.1795 12.5647 15.0001 12.5647H13.0153V3.50042C13.0153 3.38256 12.9188 3.28613 12.801 3.28613H11.1938C11.076 3.28613 10.9795 3.38256 10.9795 3.50042V12.562H9.00007C8.82061 12.562 8.7215 12.7683 8.83132 12.9076L11.8313 16.7058Z" fill="#E5E5E5"/>
</g>
</svg>
